<?xml version="1.0" encoding="utf-8"?>
<!-- Generator: Adobe Illustrator 23.0.1, SVG Export Plug-In . SVG Version: 6.00 Build 0)  -->
<svg version="1.1" id="Layer_1" xmlns="http://www.w3.org/2000/svg" xmlns:xlink="http://www.w3.org/1999/xlink" x="0px" y="0px"
	 viewBox="0 0 841.89 652.5" style="enable-background:new 0 0 841.89 652.5;" xml:space="preserve">
<style type="text/css">
	.st0{fill:#FEBE45;}
	.st1{fill:#FFFFFF;}
	.st2{fill:#E6F2DE;}
</style>
<g>
	<g>
		<circle class="st0" cx="420.94" cy="327.19" r="318.17"/>
		<path class="st1" d="M338.14,439.24V215.15c0-12.38,13.43-20.09,24.12-13.84l191.73,112.05c10.59,6.19,10.59,21.49,0,27.68
			L362.26,453.08C351.57,459.33,338.14,451.62,338.14,439.24z"/>
	</g>
	<path class="st2" d="M564.78,43.27c8.44,4.27,16.64,8.92,24.62,13.91c84.78,5.88,140.84,16.05,140.84,27.64
		c0,8.49-30.16,16.23-79.72,22.06c-56.62,6.67-138.5,10.87-229.58,10.87c-91.07,0-172.96-4.2-229.56-10.87
		c-49.54-5.83-79.72-13.57-79.72-22.06c0-11.58,56.06-21.76,140.84-27.64c7.97-4.99,16.18-9.64,24.62-13.91
		C118.48,49.51,5.37,65.76,5.37,84.82c0,14.82,68.4,27.94,173.39,35.97c68.18,5.22,151.82,8.3,242.17,8.3
		c90.37,0,174-3.07,242.19-8.3c105.01-8.03,173.39-21.15,173.39-35.97C836.52,65.76,723.4,49.51,564.78,43.27z"/>
</g>
</svg>
